<?xml version="1.0" encoding="UTF-8" standalone="no"?>
<!-- Created with Inkscape (http://www.inkscape.org/) -->

<svg
   width="33.866665mm"
   height="33.866665mm"
   viewBox="0 0 33.866664 33.866666"
   version="1.1"
   id="svg1"
   xml:space="preserve"
   sodipodi:docname="ot.svg"
   inkscape:version="1.3.2 (091e20e, 2023-11-25, custom)"
   xmlns:inkscape="http://www.inkscape.org/namespaces/inkscape"
   xmlns:sodipodi="http://sodipodi.sourceforge.net/DTD/sodipodi-0.dtd"
   xmlns="http://www.w3.org/2000/svg"
   xmlns:svg="http://www.w3.org/2000/svg"><sodipodi:namedview
     id="namedview1"
     pagecolor="#ffffff"
     bordercolor="#000000"
     borderopacity="0.25"
     inkscape:showpageshadow="2"
     inkscape:pageopacity="0.0"
     inkscape:pagecheckerboard="0"
     inkscape:deskcolor="#d1d1d1"
     inkscape:document-units="mm"
     inkscape:zoom="0.20756134"
     inkscape:cx="949.11704"
     inkscape:cy="426.37999"
     inkscape:window-width="1600"
     inkscape:window-height="837"
     inkscape:window-x="-8"
     inkscape:window-y="-8"
     inkscape:window-maximized="1"
     inkscape:current-layer="layer1" /><defs
     id="defs1" /><g
     inkscape:label="Capa 1"
     inkscape:groupmode="layer"
     id="layer1"
     transform="translate(213.21923,-47.625551)"><g
       id="g6"
       transform="matrix(0.25599999,0,0,0.25599999,-276.43996,76.877223)"
       style="stroke-width:3.90625"
       inkscape:export-filename="or.png"
       inkscape:export-xdpi="96"
       inkscape:export-ydpi="96"><path
         id="path2"
         style="fill:#ffffff;stroke-width:1.03515;stroke-linecap:round"
         d="m 313.10182,-114.26435 a 66.145836,66.145836 0 0 0 -66.14583,66.145831 66.145836,66.145836 0 0 0 66.14583,66.145833 66.145836,66.145836 0 0 0 66.14584,-66.145833 66.145836,66.145836 0 0 0 -66.14584,-66.145831 z m -26.45833,48.947911 a 17.197916,17.197916 0 0 1 13.24209,6.22805 17.197916,17.197916 0 0 1 13.21573,-6.22805 17.197916,17.197916 0 0 1 13.2426,6.22805 17.197916,17.197916 0 0 1 13.21625,-6.22805 17.197916,17.197916 0 0 1 17.19791,17.19792 17.197916,17.197916 0 0 1 -17.19791,17.197917 17.197916,17.197916 0 0 1 -13.22917,-6.245097 17.197916,17.197916 0 0 1 -13.22968,6.245097 17.197916,17.197916 0 0 1 -13.22865,-6.245097 17.197916,17.197916 0 0 1 -13.22917,6.245097 17.197916,17.197916 0 0 1 -17.19792,-17.197917 17.197916,17.197916 0 0 1 17.19792,-17.19792 z" /><g
         id="g5"
         transform="translate(202.18689,48.947919)"
         style="stroke-width:3.90625"><circle
           style="fill:#ffffff;stroke-width:1.03516;stroke-linecap:round"
           id="path3"
           cx="84.456604"
           cy="-97.066437"
           r="7.9375" /><circle
           style="fill:#ffffff;stroke-width:1.03516;stroke-linecap:round"
           id="path3-1"
           cx="110.91492"
           cy="-97.066437"
           r="7.9375" /><circle
           style="fill:#ffffff;stroke-width:1.03516;stroke-linecap:round"
           id="path3-9"
           cx="137.37328"
           cy="-97.066437"
           r="7.9375" /></g></g></g></svg>
